HIERARCHY
ROOT Hips
{
	OFFSET 0.00000 0.00000 0.00000
	CHANNELS 6 Xposition Yposition Zposition Zrotation Yrotation Xrotation 
	JOINT LHipJoint
	{
		OFFSET 0 0 0
		CHANNELS 3 Zrotation Yrotation Xrotation
		JOINT LeftUpLeg
		{
			OFFSET 1.58895 -1.83665 0.71753
			CHANNELS 3 Zrotation Yrotation Xrotation
			JOINT LeftLeg
			{
				OFFSET 2.50528 -6.88321 0.00000
				CHANNELS 3 Zrotation Yrotation Xrotation
				JOINT LeftFoot
				{
					OFFSET 2.63244 -7.23257 0.00000
					CHANNELS 3 Zrotation Yrotation Xrotation
					JOINT LeftToeBase
					{
						OFFSET 0.23691 -0.65090 1.72750
						CHANNELS 3 Zrotation Yrotation Xrotation
						End Site
						{
							OFFSET 0.00000 -0.00000 0.92561
						}
					}
				}
			}
		}
	}
	JOINT RHipJoint
	{
		OFFSET 0 0 0
		CHANNELS 3 Zrotation Yrotation Xrotation
		JOINT RightUpLeg
		{
			OFFSET -1.51435 -1.83665 0.71753
			CHANNELS 3 Zrotation Yrotation Xrotation
			JOINT RightLeg
			{
				OFFSET -2.54551 -6.99375 0.00000
				CHANNELS 3 Zrotation Yrotation Xrotation
				JOINT RightFoot
				{
					OFFSET -2.66027 -7.30903 0.00000
					CHANNELS 3 Zrotation Yrotation Xrotation
					JOINT RightToeBase
					{
						OFFSET -0.22981 -0.63138 2.03959
						CHANNELS 3 Zrotation Yrotation Xrotation
						End Site
						{
							OFFSET -0.00000 -0.00000 1.07060
						}
					}
				}
			}
		}
	}
	JOINT LowerBack
	{
		OFFSET 0 0 0
		CHANNELS 3 Zrotation Yrotation Xrotation
		JOINT Spine
		{
			OFFSET -0.02651 1.86275 -0.11152
			CHANNELS 3 Zrotation Yrotation Xrotation
			JOINT Spine1
			{
				OFFSET 0.01019 1.86224 0.04087
				CHANNELS 3 Zrotation Yrotation Xrotation
				JOINT Neck
				{
					OFFSET 0 0 0
					CHANNELS 3 Zrotation Yrotation Xrotation
					JOINT Neck1
					{
						OFFSET -0.01926 1.80512 0.08867
						CHANNELS 3 Zrotation Yrotation Xrotation
						JOINT Head
						{
							OFFSET 0.05516 1.76451 -0.38475
							CHANNELS 3 Zrotation Yrotation Xrotation
							End Site
							{
								OFFSET 0.01592 1.82587 -0.14001
							}
						}
					}
				}
				JOINT LeftShoulder
				{
					OFFSET 0 0 0
					CHANNELS 3 Zrotation Yrotation Xrotation
					JOINT LeftArm
					{
						OFFSET 3.47116 1.51376 0.14491
						CHANNELS 3 Zrotation Yrotation Xrotation
						JOINT LeftForeArm
						{
							OFFSET 4.78095 -0.00000 0.00000
							CHANNELS 3 Zrotation Yrotation Xrotation
							JOINT LeftHand
							{
								OFFSET 3.58615 -0.00000 -0.00000
								CHANNELS 3 Zrotation Yrotation Xrotation
								JOINT LeftFingerBase
								{
									OFFSET 0 0 0
									CHANNELS 3 Zrotation Yrotation Xrotation
									JOINT LeftHandIndex1
									{
										OFFSET 0.65981 -0.00000 0.00000
										CHANNELS 3 Zrotation Yrotation Xrotation
										End Site
										{
											OFFSET 0.53196 -0.00000 0.00000
										}
									}
								}
								JOINT LThumb
								{
									OFFSET 0 0 0
									CHANNELS 3 Zrotation Yrotation Xrotation
									End Site
									{
										OFFSET 0.54008 -0.00000 0.54008
									}
								}
							}
						}
					}
				}
				JOINT RightShoulder
				{
					OFFSET 0 0 0
					CHANNELS 3 Zrotation Yrotation Xrotation
					JOINT RightArm
					{
						OFFSET -3.31725 1.61216 0.35156
						CHANNELS 3 Zrotation Yrotation Xrotation
						JOINT RightForeArm
						{
							OFFSET -4.48913 -0.00000 0.00000
							CHANNELS 3 Zrotation Yrotation Xrotation
							JOINT RightHand
							{
								OFFSET -3.70510 -0.00000 0.00000
								CHANNELS 3 Zrotation Yrotation Xrotation
								JOINT RightFingerBase
								{
									OFFSET 0 0 0
									CHANNELS 3 Zrotation Yrotation Xrotation
									JOINT RightHandIndex1
									{
										OFFSET -0.44914 -0.00000 0.00000
										CHANNELS 3 Zrotation Yrotation Xrotation
										End Site
										{
											OFFSET -0.36211 -0.00000 0.00000
										}
									}
								}
								JOINT RThumb
								{
									OFFSET 0 0 0
									CHANNELS 3 Zrotation Yrotation Xrotation
									End Site
									{
										OFFSET -0.36763 -0.00000 0.36763
									}
								}
							}
						}
					}
				}
			}
		}
	}
}
MOTION
Frames: 10
Frame Time: .0083333
-0.5287 18.7056 5.6794 -1.5911 -2.4577 2.3795 0.0000 0.0000 0.0000 -13.3209 -6.2740 -2.4908 1.3001 7.2237 20.3798 1.6934 7.9844 -28.5739 7.9544 -16.0856 -52.3984 0.0000 0.0000 0.0000 0.0000 0.0000 0.0000 0.0000 0.0000 0.0000 -0.0000 -0.0000 0.0000 -0.0000 -0.0000 0.0000 -2.7585 1.5393 3.3104 0.3215 1.9315 -1.7733 1.7496 1.0347 -3.7878 -1.7609 -3.1865 -16.3589 5.4219 -4.5816 8.7228 1.5648 -1.8913 5.4626 -0.0000 0.0000 0.0000 -54.5857 -28.7370 33.4946 138.8901 -48.7139 -100.7308 -0.0000 0.0000 -49.3917 31.3232 -15.7645 -9.3882 -7.1250 0.0000 -0.0000 2.4093 11.7052 -1.8721 -0.0000 0.0000 0.0000 60.1084 24.0554 36.5759 -140.6063 47.7066 -102.0106 0.0000 -0.0000 -26.9622 -23.5247 -48.8845 18.1578 7.1250 -0.0000 -0.0000 42.7084 -78.5721 -34.3427
-0.5261 18.7059 5.6876 -1.5563 -2.5075 2.3831 0.0000 0.0000 0.0000 -13.3756 -6.2149 -2.4838 1.3009 7.2257 20.3858 1.6945 8.0082 -28.5966 7.9717 -16.0984 -52.4608 0.0000 0.0000 0.0000 0.0000 0.0000 0.0000 0.0000 0.0000 0.0000 -0.0000 -0.0000 0.0000 -0.0000 -0.0000 0.0000 -2.7460 1.5695 3.2311 0.2892 1.9731 -1.8194 1.7078 1.0552 -3.7913 -1.6328 -3.2222 -16.3170 5.3009 -4.6383 8.6467 1.5014 -1.9255 5.4276 0.0000 -0.0000 0.0000 -54.4606 -28.9038 33.0741 138.8912 -48.7133 -100.7317 -0.0000 0.0000 -49.4340 31.3125 -15.6779 -9.3350 -7.1250 0.0000 -0.0000 2.4129 11.8057 -1.8699 0.0000 -0.0000 0.0000 59.9373 24.2925 36.2203 -140.5378 47.7480 -101.9599 0.0000 -0.0000 -27.0901 -23.3008 -49.0341 18.0150 7.1250 -0.0000 -0.0000 43.5402 -78.5658 -35.0433
-0.5248 18.7059 5.6957 -1.5421 -2.5174 2.3710 0.0000 0.0000 0.0000 -13.3946 -6.1938 -2.4650 1.3048 7.2362 20.4169 1.7062 7.9329 -28.6267 7.9492 -16.0818 -52.3795 0.0000 0.0000 0.0000 0.0000 0.0000 0.0000 0.0000 0.0000 0.0000 -0.0000 -0.0000 0.0000 -0.0000 -0.0000 0.0000 -2.7478 1.5738 3.1704 0.2733 1.9795 -1.8728 1.6928 1.0591 -3.8121 -1.5258 -3.2070 -16.2552 5.1968 -4.6256 8.6012 1.4536 -1.9252 5.3975 -0.0000 -0.0000 0.0000 -54.3744 -28.9414 32.7166 138.9475 -48.6813 -100.7740 -0.0000 0.0000 -49.3163 31.6897 -15.5673 -9.4074 -7.1250 0.0000 -0.0000 2.6759 11.8662 -2.0708 -0.0000 -0.0000 0.0000 59.8131 24.4441 35.9776 -140.5201 47.7587 -101.9468 0.0000 -0.0000 -27.1283 -23.5063 -48.9404 18.1573 7.1250 -0.0000 -0.0000 42.9573 -78.5974 -34.5737
-0.5174 18.7071 5.6986 -1.5340 -2.6218 2.4036 0.0000 0.0000 0.0000 -13.4618 -6.2971 -2.4244 1.3030 7.2314 20.4028 1.7235 7.9994 -28.7853 7.9023 -16.0469 -52.2099 0.0000 0.0000 0.0000 0.0000 0.0000 0.0000 0.0000 0.0000 0.0000 -0.0000 -0.0000 0.0000 -0.0000 -0.0000 0.0000 -2.6755 1.5935 3.1401 0.2549 2.0087 -1.9442 1.6310 1.0730 -3.8672 -1.5104 -3.1561 -16.2190 5.1981 -4.5593 8.5702 1.4584 -1.8933 5.3793 -0.0000 0.0000 0.0000 -54.2881 -28.9142 32.3396 138.9842 -48.6604 -100.8015 -0.0000 0.0000 -49.2112 31.9326 -15.4689 -9.4377 -7.1250 0.0000 -0.0000 2.8488 11.9365 -2.2008 -0.0000 0.0000 0.0000 59.6506 24.6127 35.7755 -140.4725 47.7875 -101.9115 0.0000 -0.0000 -27.0408 -23.7623 -48.7717 18.3208 7.1250 -0.0000 -0.0000 42.0126 -78.6047 -33.7794
-0.4931 18.7108 5.6910 -1.5172 -3.0174 2.6116 0.0000 0.0000 0.0000 -13.6736 -6.6734 -2.4745 1.3015 7.2275 20.3910 1.7566 8.4613 -29.3040 7.8403 -16.0005 -51.9854 0.0000 0.0000 0.0000 0.0000 0.0000 0.0000 0.0000 0.0000 0.0000 -0.0000 -0.0000 0.0000 -0.0000 -0.0000 0.0000 -2.3686 1.7084 3.0862 0.1716 2.1739 -2.0776 1.3613 1.1482 -3.9676 -1.5449 -3.1221 -16.2424 5.2623 -4.5143 8.5696 1.4882 -1.8675 5.3839 0.0000 0.0000 0.0000 -54.1735 -28.8876 31.9205 139.0094 -48.6460 -100.8204 -0.0000 0.0000 -49.2729 31.8485 -15.3343 -9.3290 -7.1250 0.0000 -0.0000 2.8101 12.1053 -2.1609 0.0000 0.0000 0.0000 59.4568 24.8112 35.5297 -140.3938 47.8349 -101.8532 0.0000 -0.0000 -27.0169 -23.9041 -48.7886 18.4400 7.1250 -0.0000 -0.0000 41.9438 -78.6744 -33.7754
-0.5192 18.7063 5.7132 -1.4838 -2.6921 2.4143 0.0000 0.0000 0.0000 -13.5443 -6.3487 -2.3221 1.3002 7.2238 20.3803 1.7328 8.1005 -28.9119 7.9174 -16.0582 -52.2647 0.0000 0.0000 0.0000 0.0000 0.0000 0.0000 0.0000 0.0000 0.0000 -0.0000 -0.0000 0.0000 -0.0000 -0.0000 0.0000 -2.7576 1.6023 2.9935 0.2508 2.0200 -2.0089 1.6750 1.0813 -3.8548 -1.5056 -3.0914 -16.2838 5.2188 -4.4779 8.6122 1.4711 -1.8502 5.4008 -0.0000 0.0000 0.0000 -54.0575 -28.8307 31.5063 139.0689 -48.6120 -100.8651 -0.0000 0.0000 -49.3807 31.7635 -15.1791 -9.2084 -7.1250 0.0000 -0.0000 2.7731 12.2980 -2.1214 -0.0000 0.0000 0.0000 59.3086 24.9888 35.2612 -140.3372 47.8689 -101.8112 0.0000 -0.0000 -27.1063 -23.8420 -49.1276 18.4782 7.1250 -0.0000 -0.0000 43.4322 -78.8480 -35.1771
-0.5265 18.7040 5.7244 -1.5138 -2.5820 2.3761 0.0000 0.0000 0.0000 -13.4605 -6.2509 -2.2788 1.2994 7.2219 20.3743 1.7319 7.9876 -28.8335 7.9522 -16.0840 -52.3902 0.0000 0.0000 0.0000 0.0000 0.0000 0.0000 0.0000 0.0000 0.0000 -0.0000 -0.0000 0.0000 -0.0000 -0.0000 0.0000 -2.8091 1.5577 2.9073 0.2702 1.9613 -2.0244 1.7298 1.0536 -3.8217 -1.3993 -3.0477 -16.2971 5.1228 -4.4317 8.6467 1.4280 -1.8303 5.4074 -0.0000 -0.0000 0.0000 -53.9086 -28.7712 31.0571 139.1340 -48.5747 -100.9140 -0.0000 0.0000 -49.6343 31.6536 -14.9770 -9.0523 -7.1250 0.0000 -0.0000 2.7249 12.5482 -2.0702 -0.0000 -0.0000 0.0000 59.1732 25.1677 34.9433 -140.2738 47.9069 -101.7642 0.0000 -0.0000 -27.3989 -23.6636 -49.4332 18.4119 7.1250 -0.0000 -0.0000 44.9210 -78.9459 -36.5305
-0.5251 18.7027 5.7293 -1.5666 -2.5677 2.4060 0.0000 0.0000 0.0000 -13.4034 -6.2576 -2.2736 1.2947 7.2093 20.3369 1.7416 7.9355 -28.8646 7.9251 -16.0639 -52.2925 0.0000 0.0000 0.0000 0.0000 0.0000 0.0000 0.0000 0.0000 0.0000 -0.0000 -0.0000 0.0000 -0.0000 -0.0000 0.0000 -2.7241 1.5402 2.8017 0.2692 1.9446 -2.0450 1.6849 1.0428 -3.7793 -1.3416 -3.0181 -16.3050 5.1073 -4.4016 8.6300 1.4167 -1.8149 5.4008 0.0000 0.0000 0.0000 -53.7211 -28.8457 30.5164 139.1272 -48.5786 -100.9088 -0.0000 0.0000 -49.8609 31.7464 -14.6769 -8.9096 -7.1250 0.0000 -0.0000 2.8233 12.8767 -2.1257 0.0000 0.0000 0.0000 58.9192 25.4675 34.4943 -140.1657 47.9714 -101.6840 0.0000 -0.0000 -27.9605 -23.5758 -49.6415 18.3935 7.1250 -0.0000 -0.0000 45.9203 -79.0229 -37.4542
-0.5250 18.7009 5.7334 -1.5802 -2.5499 2.4135 0.0000 0.0000 0.0000 -13.3888 -6.2867 -2.2661 1.2949 7.2097 20.3381 1.7448 7.9090 -28.8695 7.9036 -16.0479 -52.2148 0.0000 0.0000 0.0000 0.0000 0.0000 0.0000 0.0000 0.0000 0.0000 -0.0000 -0.0000 0.0000 -0.0000 -0.0000 0.0000 -2.7106 1.5312 2.7008 0.2744 1.9366 -2.0288 1.6862 1.0375 -3.7046 -1.3589 -3.0186 -16.3553 5.1517 -4.4028 8.6042 1.4329 -1.8124 5.4025 -0.0000 -0.0000 0.0000 -53.4927 -29.1418 29.8232 138.9704 -48.6682 -100.7912 -0.0000 0.0000 -50.1045 31.7943 -14.3437 -8.7307 -7.1250 0.0000 -0.0000 2.8954 13.2514 -2.1575 -0.0000 -0.0000 0.0000 58.4857 25.9415 33.8315 -139.9969 48.0717 -101.5585 0.0000 -0.0000 -28.7222 -23.5407 -49.9760 18.4495 7.1250 -0.0000 -0.0000 47.4696 -79.1849 -38.9321
-0.5255 18.6989 5.7374 -1.6015 -2.5355 2.4022 0.0000 0.0000 0.0000 -13.3718 -6.3157 -2.2405 1.2966 7.2143 20.3518 1.7415 7.9601 -28.8799 7.9298 -16.0674 -52.3093 0.0000 0.0000 0.0000 0.0000 0.0000 0.0000 0.0000 0.0000 0.0000 -0.0000 -0.0000 0.0000 -0.0000 -0.0000 0.0000 -2.7020 1.5314 2.6191 0.2795 1.9402 -2.0022 1.6891 1.0380 -3.6309 -1.3699 -3.0192 -16.4051 5.2163 -4.4080 8.5773 1.4541 -1.8102 5.4043 0.0000 -0.0000 0.0000 -53.0996 -29.5896 28.9322 138.7013 -48.8208 -100.5889 -0.0000 0.0000 -50.5154 31.7204 -14.0356 -8.5255 -7.1250 0.0000 -0.0000 2.8826 13.6175 -2.1256 0.0000 -0.0000 0.0000 57.9351 26.4975 33.0368 -139.7949 48.1909 -101.4080 0.0000 -0.0000 -29.2788 -23.7203 -50.1802 18.6485 7.1250 -0.0000 -0.0000 48.2864 -79.3655 -39.7980
